<?xml version="1.0" standalone="no"?>
<!DOCTYPE svg PUBLIC "-//W3C//DTD SVG 20010904//EN"
 "http://www.w3.org/TR/2001/REC-SVG-20010904/DTD/svg10.dtd">
<svg version="1.0" xmlns="http://www.w3.org/2000/svg"
 width="1024.000000pt" height="1024.000000pt" viewBox="0 0 1024.000000 1024.000000"
 preserveAspectRatio="xMidYMid meet">
<metadata>
Created by potrace 1.16, written by Peter Selinger 2001-2019
</metadata>
<g transform="translate(0.000000,1024.000000) scale(0.100000,-0.100000)"
fill="#000000" stroke="none">
<path d="M4755 10049 c-213 -22 -295 -31 -355 -40 -809 -121 -1587 -446 -2245
-939 -190 -143 -334 -268 -520 -455 -679 -678 -1129 -1489 -1329 -2397 -120
-541 -148 -1187 -76 -1763 89 -720 374 -1476 778 -2070 206 -303 379 -511 638
-767 208 -205 301 -286 514 -447 467 -352 936 -592 1516 -774 562 -177 1242
-249 1874 -197 743 61 1509 314 2150 711 785 486 1429 1187 1835 1999 291 581
444 1133 504 1820 15 166 6 791 -13 945 -87 696 -273 1279 -587 1840 -433 774
-1076 1431 -1839 1877 -148 87 -441 231 -595 293 -77 31 -149 60 -160 66 -11
5 -87 31 -170 58 -392 128 -733 197 -1170 236 -158 14 -628 16 -750 4z m1118
-3203 c216 -50 380 -134 521 -266 204 -193 312 -441 346 -798 6 -65 10 -550
10 -1244 l0 -1138 -480 0 -480 0 0 1008 c0 608 -4 1050 -10 1115 -24 249 -118
409 -293 495 -105 52 -175 66 -327 65 -185 0 -307 -33 -432 -117 -162 -107
-258 -265 -288 -471 -6 -43 -10 -464 -10 -1082 l0 -1013 -172 -2 c-95 -1 -312
-1 -483 0 l-310 2 0 1702 0 1703 462 3 463 2 2 -271 3 -271 50 69 c210 287
554 481 935 527 81 10 427 -3 493 -18z"/>
</g>
</svg>
